<svg width="10" height="10" viewBox="0 0 10 10" xmlns="http://www.w3.org/2000/svg"><title>870A1FEC-052A-4D4F-BCBF-9B7A2B2BFFF4</title><path d="M5 1.458c-.642 0-1.235.159-1.777.476a3.53 3.53 0 0 0-1.29 1.289A3.462 3.462 0 0 0 1.459 5c0 .642.159 1.235.476 1.777a3.53 3.53 0 0 0 1.289 1.29A3.462 3.462 0 0 0 5 8.541c.642 0 1.235-.159 1.777-.476a3.53 3.53 0 0 0 1.29-1.289A3.462 3.462 0 0 0 8.541 5c0-.642-.159-1.235-.476-1.777a3.53 3.53 0 0 0-1.289-1.29A3.462 3.462 0 0 0 5 1.459zM10 5c0 .907-.224 1.744-.67 2.51a4.978 4.978 0 0 1-1.82 1.82A4.891 4.891 0 0 1 5 10a4.891 4.891 0 0 1-2.51-.67A4.978 4.978 0 0 1 .67 7.51 4.891 4.891 0 0 1 0 5c0-.907.224-1.744.67-2.51A4.978 4.978 0 0 1 2.49.67 4.891 4.891 0 0 1 5 0c.907 0 1.744.224 2.51.67a4.978 4.978 0 0 1 1.82 1.82c.446.766.67 1.603.67 2.51z" fill="#000" fill-rule="evenodd" fill-opacity=".546"/></svg>