<svg width="10" height="10" viewBox="0 0 10 10" xmlns="http://www.w3.org/2000/svg"><title>6A9C16F8-D467-42EF-A284-164C0A800025</title><path d="M10 5c0 .907-.224 1.744-.67 2.51a4.978 4.978 0 0 1-1.82 1.82A4.891 4.891 0 0 1 5 10a4.891 4.891 0 0 1-2.51-.67A4.978 4.978 0 0 1 .67 7.51 4.891 4.891 0 0 1 0 5c0-.907.224-1.744.67-2.51A4.978 4.978 0 0 1 2.49.67 4.891 4.891 0 0 1 5 0c.907 0 1.744.224 2.51.67a4.978 4.978 0 0 1 1.82 1.82c.446.766.67 1.603.67 2.51z" fill="#000" fill-rule="evenodd" fill-opacity=".546"/></svg>