<svg width="31" height="29" viewBox="0 0 31 29" xmlns="http://www.w3.org/2000/svg">
    <title>7CB7807E-292A-454F-A617-A52FE9CDA5C1</title>
    <path d="M30.33 11.21c0 .267-.158.559-.474.875l-6.617 6.452 1.568 9.113c.012.086.018.207.018.365 0 .608-.249.911-.747.911-.23 0-.474-.073-.73-.218l-8.183-4.302-8.184 4.302c-.267.145-.51.218-.73.218-.254 0-.446-.088-.573-.264a1.074 1.074 0 0 1-.192-.647c0-.073.012-.194.037-.365l1.567-9.113-6.634-6.452C.152 11.756 0 11.465 0 11.21c0-.45.34-.73 1.02-.839l9.15-1.33L14.273.747C14.502.25 14.8 0 15.165 0c.364 0 .662.25.893.747l4.101 8.294 9.15 1.33c.68.11 1.02.389 1.02.839z"
          fill="#DC0" fill-rule="evenodd" fill-opacity=".546"/>
</svg>