<svg width="31" height="29" viewBox="0 0 31 29" xmlns="http://www.w3.org/2000/svg"><title>69B14202-5E1C-4AD5-A274-2430E11B81C0</title><path d="M20.724 17.717l5.578-5.414-7.692-1.13-3.445-6.963-3.445 6.963-7.692 1.13 5.578 5.414-1.33 7.673 6.889-3.627 6.872 3.627-1.313-7.673zm9.606-6.507c0 .267-.158.559-.474.875l-6.617 6.452 1.568 9.113c.012.086.018.207.018.365 0 .608-.249.911-.747.911-.23 0-.474-.073-.73-.218l-8.183-4.302-8.184 4.302c-.267.145-.51.218-.73.218-.254 0-.446-.088-.573-.264a1.074 1.074 0 0 1-.192-.647c0-.073.012-.194.037-.365l1.567-9.113-6.634-6.452C.152 11.756 0 11.465 0 11.21c0-.45.34-.73 1.02-.839l9.15-1.33L14.273.747C14.502.25 14.8 0 15.165 0c.364 0 .662.25.893.747l4.101 8.294 9.15 1.33c.68.11 1.02.389 1.02.839z" fill="#000" fill-rule="evenodd" fill-opacity=".429"/></svg>